<svg xmlns="http://www.w3.org/2000/svg" width="720" height="200" viewBox="0 0 720 200" role="img" aria-labelledby="title desc">
  <title id="title">TravelCheck Logo Lockup</title>
  <desc id="desc">Enhanced TravelCheck logo with wordmark for headers and marketing materials.</desc>
  <style>
    :root{
      --ink:#0f172a;     /* globe ring */
      --grid:#223044;    /* globe grid */
      --land:#0ea5e9;    /* land tint */
      --card:#ffffff;    /* card */
      --badge:#0b1220;   /* badge bg */
      --check:#22c55e;   /* check */
      --shadow:rgba(15,23,42,.08);
      --text:#0f172a;    /* wordmark */
      --subtext:#475569; /* tagline */
    }
    .card{ fill:var(--card); }
    .globe-ring{ stroke:var(--ink); stroke-width:8; fill:none; stroke-linecap:round; }
    .equator{ stroke:var(--ink); stroke-width:8; stroke-linecap:round; }
    .grid{ stroke:var(--grid); stroke-width:2; fill:none; opacity:.9; }
    .land{ fill:var(--land); opacity:.16; }
    .badge{ fill:var(--badge); }
    .check{ fill:var(--check); }
    .shadow{ fill:var(--shadow); }
    .wordmark{ font:700 48px/1 "Inter", system-ui, -apple-system, "Segoe UI", Roboto, "Helvetica Neue", Arial, sans-serif; fill:var(--text); letter-spacing:.5px;}
    .tagline{ font:400 16px/1.4 "Inter", system-ui, -apple-system, "Segoe UI", Roboto, "Helvetica Neue", Arial, sans-serif; fill:var(--subtext);}
  </style>

  <!-- ICON SECTION (scaled down version of main icon) -->
  <g transform="translate(20,20)">
    <!-- soft drop shadow -->
    <ellipse class="shadow" cx="80" cy="122" rx="46" ry="9"/>
    
    <!-- PASSPORT CARD -->
    <rect class="card" x="39" y="42" width="82" height="62" rx="14"/>
    
    <!-- GLOBE (exact same pattern as main icon, scaled down) -->
    <defs>
      <clipPath id="globeClip"><circle cx="80" cy="73" r="29"/></clipPath>
    </defs>
    <circle class="globe-ring" cx="80" cy="73" r="29"/>
    <g clip-path="url(#globeClip)">
      <path class="grid" d="M51 73h58"/>
      <path class="grid" d="M54 64c9-5 39-5 54 0"/>
      <path class="grid" d="M54 82c9 5 39 5 54 0"/>
      <path class="grid" d="M80 45c-12 0-22 13-22 28s10 28 22 28"/>
      <path class="grid" d="M80 45c12 0 22 13 22 28s-10 28-22 28"/>
      <path class="land" d="M64 60c6-4 16-4 24-2 4 1 6 3 7 5 1 2 0 4-2 4-8 2-18 2-27-1-4-1-4-4-2-6z"/>
      <path class="land" d="M58 79c2-2 6-4 11-5 10-1 22 2 27 6 2 2 2 5-2 5-14 2-27 1-35-3-2-1-3-3-1-3z"/>
    </g>
    <line class="equator" x1="51" y1="73" x2="109" y2="73"/>
    
    <!-- CORNER BADGE CHECK (scaled down) -->
    <g transform="translate(96,93)">
      <circle class="badge" r="12"/>
      <path class="check" d="M-4 2l-4-5a4 4 0 0 1 6-5l2 3 7-7a4 4 0 1 1 5 5l-10 10a4 4 0 0 1-6-2z"/>
    </g>
  </g>

  <!-- WORDMARK SECTION -->
  <g transform="translate(160,0)">
    <text class="wordmark" x="0" y="80">TravelCheck</text>
    <text class="tagline" x="0" y="110">Email + passport intelligence for accurate, auditable travel history</text>
  </g>
</svg>