<svg xmlns="http://www.w3.org/2000/svg" width="256" height="256" viewBox="0 0 256 256" role="img" aria-labelledby="t d">
    <title id="t">Travelcheck — Monochrome</title>
    <desc id="d">Simplified one-color Travelcheck logo with card, globe, and verification badge.</desc>
    <style>
      :root{
        --ink:#0f172a;     /* main ink (can be #000 for pure black) */
        --bg:#ffffff;      /* background for card */
      }
      .card{ fill:var(--bg); }
      .globe-ring{ stroke:var(--ink); stroke-width:16; fill:none; stroke-linecap:round; }
      .equator{ stroke:var(--ink); stroke-width:16; stroke-linecap:round; }
      .grid{ stroke:var(--ink); stroke-width:4; fill:none; opacity:.5; }
      .badge{ fill:var(--ink); }
      .check{ fill:var(--bg); }
    </style>
  
    <!-- Passport card -->
    <rect class="card" x="62" y="68" width="132" height="100" rx="22"/>
  
    <!-- Globe -->
    <defs>
      <clipPath id="gClip"><circle cx="128" cy="118" r="46"/></clipPath>
    </defs>
    <circle class="globe-ring" cx="128" cy="118" r="46"/>
    <g clip-path="url(#gClip)">
      <path class="grid" d="M82 118h92"/>
      <path class="grid" d="M86 103c14-8 62-8 86 0"/>
      <path class="grid" d="M86 133c14 8 62 8 86 0"/>
      <path class="grid" d="M128 72c-20 0-36 21-36 46s16 46 36 46"/>
      <path class="grid" d="M128 72c20 0 36 21 36 46s-16 46-36 46"/>
    </g>
    <line class="equator" x1="82" y1="118" x2="174" y2="118"/>
  
    <!-- Badge check (inverted for monochrome) -->
    <g transform="translate(154,150)">
      <circle class="badge" r="20"/>
      <path class="check" d="M-6 4l-7-8a6 6 0 0 1 9-8l4 5 12-12a6 6 0 1 1 9 9l-17 17a6 6 0 0 1-10-3z"/>
    </g>
  </svg>
